<?xml version="1.0" encoding="UTF-8" standalone="no"?>
<!DOCTYPE svg PUBLIC "-//W3C//DTD SVG 1.1//EN" "http://www.w3.org/Graphics/SVG/1.1/DTD/svg11.dtd">
<svg width="100%" height="100%" viewBox="0 0 941 1280" version="1.1" xmlns="http://www.w3.org/2000/svg" xmlns:xlink="http://www.w3.org/1999/xlink" xml:space="preserve" xmlns:serif="http://www.serif.com/" style="fill-rule:evenodd;clip-rule:evenodd;stroke-linejoin:round;stroke-miterlimit:2;">
    <g transform="matrix(0.1,0,0,-0.1,0,1280)">
        <path d="M4270,12791C4240,12786 4179,12767 4135,12749C4059,12717 4048,12715 3890,12710C3696,12702 3687,12700 3415,12574C3225,12487 3114,12450 3042,12450C3003,12450 2974,12433 2707,12253C2090,11837 1932,11725 1535,11416C1026,11021 863,10860 727,10617C623,10431 570,10255 521,9930C464,9557 443,9321 434,8955C427,8684 434,8582 479,8353C497,8263 518,8102 530,7963C571,7483 627,7158 714,6879L728,6833L632,6838C463,6845 316,6799 242,6715C213,6682 196,6648 172,6568C136,6453 92,6244 61,6040C-26,5468 -18,5184 93,4850C137,4716 642,3720 723,3608C786,3520 897,3416 944,3400C999,3382 1052,3391 1164,3439C1219,3462 1274,3480 1289,3478C1312,3475 1315,3470 1318,3430C1328,3242 1378,2963 1436,2773C1555,2380 1732,2064 2134,1525C2274,1337 2328,1272 2352,1262C2370,1254 2405,1231 2431,1209C2457,1188 2483,1170 2489,1170C2496,1170 2507,1155 2515,1137C2522,1120 2542,1088 2559,1066C2576,1045 2590,1021 2590,1014C2590,1007 2605,993 2622,984C2685,952 2777,869 2899,734C3037,581 3056,566 3229,469C3360,394 3410,360 3555,244C3683,142 3705,133 3908,99C4068,73 4087,68 4103,45C4125,16 4148,14 4293,32C4375,42 4431,41 4643,26C5174,-12 5467,-6 5554,45C5594,68 5607,71 5693,68C5783,66 5791,68 5853,99C5940,143 6020,212 6167,368C6276,484 6298,502 6377,543C6476,594 6547,661 6665,815C6849,1056 6871,1080 7005,1181C7147,1287 7162,1303 7267,1460C7341,1570 7397,1632 7442,1656C7461,1666 7474,1686 7489,1732C7513,1804 7602,1986 7719,2204C7845,2437 7901,2580 7932,2742C7940,2785 7949,2810 7958,2810C7965,2810 7983,2816 7998,2824C8024,2837 8027,2846 8043,2952C8071,3124 8112,3277 8219,3600C8313,3884 8317,3895 8341,3892C8354,3890 8406,3888 8455,3887C8535,3885 8551,3888 8600,3912C8679,3951 8722,3990 8805,4098C8873,4186 8877,4195 8868,4222C8854,4262 8864,4316 8900,4392C8934,4463 8936,4483 8916,4531C8899,4573 8903,4583 8950,4640C9004,4706 9010,4722 9010,4795C9010,4872 9013,4878 9097,4988C9168,5082 9174,5098 9168,5178C9161,5252 9173,5285 9265,5445C9374,5636 9384,5667 9383,5825C9383,5940 9378,5976 9343,6129L9303,6302L9343,6296C9366,6292 9390,6284 9397,6278C9407,6270 9410,6271 9410,6281C9410,6307 9392,6322 9359,6325C9326,6327 9323,6331 9231,6509C9175,6618 9120,6710 9095,6738L9052,6785L8924,6790C8846,6793 8786,6801 8772,6809C8746,6823 8745,6817 8778,6945C8804,7042 8808,7091 8820,7385C8830,7624 8837,7674 8906,8000C8950,8212 8958,8372 8926,8453C8916,8480 8910,8503 8913,8506C8915,8508 8930,8506 8945,8500C8994,8482 9006,8493 9005,8557C9005,8603 9013,8632 9043,8698C9094,8809 9106,8885 9090,9020C9079,9125 9071,9150 8947,9506C8921,9578 8855,9797 8800,9991C8677,10425 8646,10520 8608,10587C8592,10616 8526,10692 8458,10759C8344,10873 8338,10881 8344,10911C8352,10953 8328,10990 8239,11075C8075,11229 7840,11339 7643,11354C7608,11356 7580,11355 7580,11351C7580,11346 7589,11335 7601,11324C7628,11300 7653,11252 7645,11240C7634,11221 7619,11230 7605,11263C7598,11281 7582,11304 7571,11314C7547,11335 7542,11325 7564,11301C7590,11272 7647,11147 7700,11003C7729,10924 7757,10860 7761,10860C7765,10860 7772,10869 7775,10880C7784,10909 7826,10917 7851,10894L7872,10875L7865,10948C7856,11036 7869,11048 7927,11001C7991,10950 8054,10928 8137,10927L8210,10927L8235,10884C8248,10861 8261,10827 8262,10809C8265,10780 8262,10775 8241,10772C8228,10770 8199,10776 8177,10786C8139,10804 8137,10803 8124,10785C8116,10775 8110,10757 8110,10745C8110,10709 8088,10693 8000,10665C7730,10580 7521,10416 7391,10188L7359,10131L7392,10063C7424,9998 7532,9876 7602,9825C7628,9806 7629,9804 7616,9768L7603,9731L7659,9696C7760,9634 7847,9524 7915,9375C7953,9293 7958,9290 8084,9290C8174,9290 8219,9303 8405,9377C8560,9439 8623,9458 8700,9462C8739,9464 8746,9461 8757,9440C8764,9426 8770,9396 8770,9373C8770,9332 8769,9331 8728,9320C8704,9314 8679,9307 8672,9305C8665,9302 8580,9292 8482,9280C8284,9258 8239,9246 8163,9194C8102,9152 8100,9144 8130,9048C8153,8972 8212,8878 8273,8816C8306,8783 8318,8762 8323,8731C8326,8709 8350,8644 8376,8588C8422,8489 8424,8482 8423,8400C8423,8341 8411,8264 8385,8150C8345,7971 8337,7862 8359,7796C8374,7753 8377,7758 8308,7709C8287,7694 8286,7692 8300,7622C8314,7544 8310,7520 8265,7411L8238,7347L8255,7269C8270,7199 8270,7187 8256,7132C8234,7049 8235,7042 8275,7026C8309,7012 8329,6986 8317,6973C8313,6970 8297,6973 8280,6980C8263,6987 8247,6990 8244,6987C8241,6984 8255,6870 8274,6733C8321,6410 8340,6241 8340,6157C8340,6078 8350,6069 8414,6091C8476,6113 8492,6149 8499,6289C8504,6390 8508,6409 8527,6429C8554,6458 8567,6488 8594,6592C8621,6697 8637,6708 8782,6721C8900,6731 8977,6724 9004,6701C9067,6647 9180,6443 9224,6305C9272,6154 9283,6084 9283,5915C9284,5692 9264,5624 9068,5195C8854,4728 8822,4635 8790,4382C8779,4298 8766,4210 8759,4187C8733,4086 8658,4007 8577,3995C8519,3986 8435,4019 8386,4069L8347,4109L8354,4183C8366,4319 8360,4622 8340,4900C8329,5051 8320,5235 8320,5308C8320,5380 8316,5440 8312,5440C8307,5440 8294,5423 8282,5401C8255,5354 8253,5251 8275,5150C8292,5072 8295,4627 8280,4430C8253,4088 8191,3766 8103,3522C8084,3469 8070,3446 8052,3437C8020,3422 8012,3399 7899,2985C7796,2609 7742,2442 7675,2285C7598,2106 7558,2041 7321,1725C7102,1432 7088,1415 6629,915C6148,390 5992,264 5697,166C5448,82 5181,47 4800,47C4509,47 4316,62 4115,100C3853,151 3803,183 3204,672C2584,1178 2293,1476 1962,1942C1755,2234 1654,2458 1541,2875C1410,3356 1290,4264 1290,4771C1290,4902 1288,4919 1271,4934C1244,4958 1232,5022 1225,5174C1218,5331 1200,5383 1146,5405C1126,5413 1108,5420 1104,5420C1088,5420 1126,4925 1180,4435C1223,4052 1245,3827 1255,3677L1262,3580L1188,3545C1041,3475 937,3501 829,3637C678,3827 351,4410 242,4685C89,5071 73,5479 186,6147C229,6404 267,6576 288,6608C311,6643 426,6736 475,6760C502,6773 537,6780 574,6780C746,6780 817,6699 910,6400C955,6257 995,6159 1030,6110C1047,6086 1059,6080 1089,6080C1139,6080 1184,6096 1242,6135C1277,6158 1286,6169 1280,6180C1266,6202 1269,6296 1285,6370C1293,6406 1299,6454 1300,6478C1300,6515 1296,6522 1273,6532C1257,6539 1244,6545 1242,6545C1241,6546 1247,6564 1255,6584C1269,6618 1269,6626 1252,6682L1233,6744L1270,6800C1315,6865 1349,6980 1387,7193C1394,7232 1369,7228 1336,7185C1291,7127 1243,7146 1280,7207C1290,7224 1319,7266 1344,7300C1369,7334 1397,7387 1406,7416C1435,7516 1409,7560 1362,7490C1304,7403 1305,7470 1364,7570C1412,7653 1427,7690 1411,7690C1391,7690 1370,7723 1370,7755C1370,7776 1361,7799 1345,7819L1319,7849L1355,7898C1404,7967 1417,8003 1424,8100C1433,8207 1458,8313 1514,8488C1579,8685 1600,8780 1607,8910C1613,9022 1614,9027 1655,9100C1707,9193 1722,9238 1719,9290C1716,9320 1721,9335 1740,9356C1791,9410 1893,9473 2106,9579C2226,9639 2354,9707 2389,9730C2452,9771 2560,9870 2560,9888C2560,9892 2533,9909 2500,9924C2424,9959 2410,9982 2439,10021L2461,10050L2418,10070C2394,10081 2343,10099 2304,10110C2213,10136 2170,10165 2151,10214C2139,10246 2139,10253 2151,10261C2189,10285 2327,10257 2401,10209C2426,10193 2494,10131 2551,10071C2696,9920 2747,9898 2845,9941C2890,9961 2895,9961 2927,9946C2960,9931 2960,9931 2960,9954C2960,9994 2980,10002 3036,9985C3063,9977 3091,9970 3098,9970C3120,9970 3122,9998 3101,10019C3079,10041 3075,10066 3089,10089C3096,10100 3113,10094 3177,10057C3337,9963 3460,9922 3536,9936C3568,9942 3571,9944 3557,9955C3539,9968 3534,9990 3549,9990C3554,9990 3571,9983 3586,9975C3621,9957 3646,9956 3720,9972C3768,9982 3781,9981 3810,9967C3828,9957 3845,9952 3847,9954C3854,9960 3831,10000 3820,10000C3810,10000 3780,10028 3780,10038C3780,10042 3784,10051 3789,10058C3795,10069 3810,10063 3856,10034C3925,9990 3996,9961 4063,9950L4111,9943L4108,9984C4105,10024 4103,10026 4040,10057C3976,10088 3950,10112 3950,10137C3950,10144 3955,10150 3961,10150C3982,10150 4099,10087 4154,10045C4210,10003 4211,10003 4283,10008C4340,10011 4366,10008 4408,9991C4468,9967 4498,9965 4534,9981C4557,9992 4564,9989 4601,9955C4653,9908 4697,9890 4756,9890L4803,9890L4796,9953C4781,10101 4715,10259 4620,10377C4550,10464 4451,10545 4270,10665C4123,10763 4111,10773 4041,10864C3975,10950 3847,11080 3828,11080C3805,11080 3832,10997 3864,10971C3888,10951 3883,10933 3851,10919L3822,10906L3896,10836C3937,10797 3970,10757 3970,10748C3970,10738 3961,10721 3950,10710L3929,10689L3832,10789C3770,10853 3719,10896 3690,10909C3591,10954 3602,10933 3751,10788C3902,10641 3969,10553 4010,10451C4028,10404 4028,10400 4012,10409C3988,10422 3952,10463 3885,10553L3826,10632L3812,10605C3799,10579 3798,10579 3779,10596C3768,10606 3753,10638 3744,10667C3722,10741 3695,10769 3565,10850C3503,10889 3432,10940 3408,10964L3365,11008L3275,11012C3218,11015 3161,11025 3120,11040C3054,11063 2820,11179 2820,11189C2820,11193 2875,11195 2943,11195C3087,11195 3157,11213 3221,11268L3262,11304L3310,11277C3372,11242 3386,11243 3394,11280C3397,11297 3406,11310 3413,11310C3420,11310 3439,11297 3455,11280C3489,11244 3504,11243 3590,11272C3648,11291 3686,11294 3950,11301C4323,11310 4505,11336 5050,11460L5175,11489L5330,11415C5460,11352 5553,11320 5602,11320C5607,11320 5595,11335 5576,11354C5543,11385 5527,11430 5549,11430C5555,11430 5580,11419 5606,11405C5670,11371 5680,11373 5680,11415C5680,11454 5708,11490 5739,11490C5749,11490 5797,11471 5846,11448C5922,11412 5945,11406 6005,11405L6076,11404L6145,11330L6213,11257L6186,11243C6170,11234 6162,11224 6167,11217C6171,11210 6198,11171 6226,11128C6309,11007 6370,10867 6370,10798C6370,10755 6345,10774 6314,10837C6288,10892 6288,10892 6250,10887L6211,10882L6183,10949C6150,11028 6069,11152 6038,11172C5982,11208 5980,11196 6033,11141C6081,11091 6090,11076 6090,11046C6090,11026 6086,11010 6080,11010C6075,11010 6070,11014 6070,11019C6070,11043 5871,11135 5854,11118C5851,11115 5872,11090 5899,11064C5950,11015 6084,10807 6073,10796C6069,10793 6054,10790 6039,10790C6002,10790 5995,10776 6024,10757C6070,10727 6092,10640 6054,10640C6029,10640 5967,10704 5884,10817C5812,10914 5777,10950 5756,10950C5753,10950 5760,10935 5771,10916C5781,10898 5788,10875 5784,10866C5775,10843 5763,10846 5756,10875C5747,10910 5707,10909 5691,10874C5678,10844 5691,10816 5742,10768C5769,10742 5779,10720 5761,10720C5748,10720 5649,10811 5510,10951C5341,11121 5219,11197 5129,11188L5097,11185L5210,11065C5311,10957 5360,10890 5360,10860C5360,10842 5324,10867 5247,10937C5174,11004 5138,11025 5111,11015C5099,11010 5103,11004 5128,10988C5163,10966 5181,10923 5160,10910C5141,10899 4914,10993 4802,11059C4773,11076 4750,11087 4750,11084C4750,11060 4793,11011 4855,10964C4900,10930 4933,10898 4936,10883C4949,10833 4922,10841 4835,10914C4798,10946 4786,10951 4769,10943C4749,10935 4749,10933 4784,10907C4828,10873 4833,10845 4793,10855C4740,10868 4660,10922 4565,11008C4396,11162 4340,11208 4297,11228C4274,11239 4253,11247 4252,11245C4245,11239 4306,11157 4377,11074C4507,10924 4560,10826 4560,10735C4560,10697 4557,10692 4543,10697C4506,10709 4458,10753 4389,10836C4309,10932 4271,10960 4221,10960C4182,10960 4183,10955 4233,10871C4281,10791 4377,10692 4542,10553C4623,10484 4715,10398 4745,10362C4815,10278 4874,10163 4895,10067L4912,9992L4978,9962C5118,9898 5188,9897 5266,9956L5311,9991L5349,9957C5410,9902 5463,9887 5572,9892C5666,9897 5775,9927 5792,9952C5804,9972 5801,10059 5785,10125C5768,10193 5766,10278 5780,10300C5787,10312 5793,10311 5815,10290C5847,10260 5865,10197 5885,10043C5905,9890 5914,9860 5946,9860C5959,9860 5985,9874 6005,9892C6032,9915 6050,9923 6076,9922C6095,9921 6110,9924 6110,9928C6110,9960 6134,10068 6145,10090C6162,10122 6190,10136 6202,10118C6206,10111 6210,10077 6210,10043C6210,9979 6216,9950 6230,9950C6235,9950 6242,9959 6245,9971C6251,9990 6257,9991 6313,9985C6347,9982 6380,9983 6386,9987C6392,9991 6405,10031 6413,10074C6429,10152 6450,10197 6450,10153C6450,10118 6469,10075 6481,10087C6486,10092 6497,10134 6505,10180C6521,10273 6540,10310 6571,10310C6590,10310 6592,10306 6586,10273C6582,10252 6568,10203 6554,10163C6524,10074 6520,9970 6548,9970C6585,9971 6649,10010 6691,10059C6756,10135 6830,10176 6830,10135C6830,10116 6873,10095 6894,10103C6904,10107 6910,10126 6912,10157C6916,10214 6942,10229 6962,10185C6971,10164 6980,10160 7003,10162C7027,10164 7035,10172 7044,10200C7055,10234 7056,10234 7116,10236C7238,10239 7312,10301 7459,10522C7509,10597 7567,10673 7588,10689L7625,10720L7544,10883C7460,11051 7390,11156 7347,11179C7301,11204 7287,11173 7315,11107C7333,11062 7334,11040 7317,11040C7310,11040 7289,11076 7271,11121C7235,11209 7216,11225 7190,11192C7172,11171 7172,11171 7156,11221C7146,11249 7128,11289 7115,11309C7091,11348 7031,11404 7023,11396C7021,11394 7037,11334 7060,11263C7103,11129 7119,11017 7105,10944L7098,10905L7075,10956C7051,11010 7019,11038 6951,11066C6912,11081 6905,11090 6875,11156C6832,11251 6786,11317 6747,11341C6713,11361 6670,11366 6670,11350C6670,11324 6707,11256 6786,11138C6832,11068 6879,10992 6889,10968C6913,10914 6924,10832 6912,10800C6904,10777 6900,10781 6859,10855C6806,10952 6712,11079 6668,11112C6636,11136 6576,11170 6566,11170C6563,11170 6580,11140 6605,11104C6651,11037 6660,11010 6637,11010C6617,11010 6596,11038 6572,11093C6551,11141 6530,11155 6530,11120C6530,11110 6538,11085 6547,11065C6561,11036 6561,11027 6551,11017C6541,11007 6533,11012 6512,11040C6463,11104 6366,11202 6260,11293C6138,11398 5980,11551 5980,11564C5980,11579 6118,11560 6224,11529C6325,11500 6406,11491 6449,11505C6469,11511 6457,11519 6372,11560C6318,11586 6238,11631 6196,11659C6103,11722 5940,11877 5879,11960C5826,12033 5758,12150 5769,12150C5783,12150 5853,12094 5895,12050C5943,12000 5982,11978 6035,11971C6071,11966 6090,11950 6215,11820C6335,11695 6360,11674 6393,11668C6448,11658 6506,11628 6597,11563C6700,11489 6761,11458 6796,11462C6823,11465 6822,11466 6766,11509C6735,11534 6702,11566 6694,11581C6681,11607 6682,11610 6699,11620C6729,11635 6746,11633 6810,11600C6865,11572 6900,11569 6900,11592C6900,11597 6883,11622 6861,11646C6840,11670 6806,11721 6786,11759C6750,11827 6749,11829 6698,11840C6630,11854 6600,11874 6600,11905C6600,11956 6620,11949 6785,11841C6877,11780 6950,11742 6950,11756C6950,11759 6937,11778 6921,11798C6904,11818 6888,11847 6885,11862C6879,11885 6882,11889 6909,11895C6926,11899 6944,11909 6949,11917C6962,11942 6977,11925 6994,11865C7009,11816 7038,11780 7063,11780C7077,11780 7062,11844 7035,11902C7008,11960 7004,11991 7020,12021C7035,12049 7055,12045 7099,12005C7145,11963 7196,11869 7243,11739C7292,11605 7334,11526 7381,11480C7404,11458 7426,11440 7431,11440C7449,11440 7453,11517 7438,11590C7396,11796 7214,12112 7030,12300C6877,12456 6702,12508 6225,12540C6132,12547 6006,12558 5945,12566L5835,12580L5791,12526L5523,12603C5141,12712 5001,12745 4795,12776C4677,12793 4349,12802 4270,12791ZM4415,12585C4446,12572 4512,12535 4563,12504C4613,12473 4669,12441 4686,12434C4717,12421 4718,12421 4729,12450C4734,12467 4747,12483 4756,12487C4769,12492 4833,12476 4888,12453C4895,12450 4898,12454 4894,12463C4891,12471 4848,12504 4799,12536C4749,12568 4713,12596 4718,12598C4724,12600 4772,12585 4827,12564C5056,12479 5327,12302 5551,12092C5611,12035 5623,12019 5613,12009C5596,11992 5597,11965 5615,11950C5636,11933 5623,11918 5599,11931C5549,11957 5568,11902 5634,11832C5676,11786 5710,11732 5710,11710C5710,11689 5606,11755 5550,11810C5520,11840 5457,11914 5411,11973C5300,12117 5230,12183 5146,12226C5108,12245 5075,12258 5072,12255C5063,12246 5123,12166 5194,12090C5298,11981 5372,11878 5357,11864C5349,11856 5232,11939 5156,12009C5075,12083 5020,12126 5020,12115C5020,12096 5086,12012 5170,11924C5267,11823 5312,11760 5326,11707L5333,11678L5302,11694C5285,11703 5238,11745 5198,11787C5046,11949 4994,11997 4947,12019C4921,12032 4897,12040 4894,12037C4875,12018 5067,11755 5113,11737C5119,11734 5113,11731 5099,11731C5044,11729 4981,11787 4884,11930C4805,12046 4766,12090 4613,12238C4515,12333 4445,12406 4458,12400C4487,12386 4486,12397 4451,12451C4414,12509 4386,12534 4309,12575L4245,12610L4302,12610C4342,12610 4377,12602 4415,12585ZM4225,12406C4281,12372 4367,12352 4409,12363C4424,12367 4437,12355 4463,12316C4482,12287 4533,12226 4577,12179C4792,11948 4839,11886 4866,11793C4893,11700 4881,11702 4791,11802C4668,11939 4538,12071 4532,12065C4520,12053 4555,12004 4619,11944C4687,11880 4724,11824 4718,11795C4716,11784 4693,11791 4623,11825C4435,11914 4258,12058 4095,12254C4048,12309 4010,12358 4010,12363C4010,12379 4058,12368 4110,12340C4140,12323 4173,12310 4182,12310C4211,12310 4213,12331 4186,12359C4171,12374 4160,12398 4160,12413C4160,12428 4162,12440 4164,12440C4166,12440 4193,12425 4225,12406ZM5549,12196C5564,12178 5555,12159 5536,12166C5525,12170 5500,12211 5500,12226C5500,12234 5536,12212 5549,12196ZM7076,12215C7103,12197 7126,12142 7113,12129C7097,12113 7072,12130 7060,12166C7054,12185 7042,12200 7034,12200C7019,12200 7015,12212 7027,12223C7037,12234 7054,12231 7076,12215ZM3775,12199C4028,12168 4188,12069 4475,11765C4603,11630 4717,11523 4780,11477L4805,11460L4770,11466C4680,11481 4612,11525 4396,11707C4342,11751 4269,11804 4232,11823C4162,11859 4060,11894 4060,11882C4060,11862 4112,11806 4167,11766C4234,11717 4254,11692 4266,11645C4272,11619 4271,11617 4258,11627C4250,11634 4194,11658 4134,11680C4075,11702 4015,11728 4002,11736C3984,11748 3975,11749 3966,11740C3958,11732 3967,11718 4004,11687C4036,11658 4051,11638 4049,11626C4043,11595 4028,11598 3973,11639C3944,11660 3864,11713 3794,11756C3664,11838 3549,11934 3516,11990L3498,12022L3519,12010C3539,12000 3540,12001 3534,12027C3530,12042 3527,12059 3526,12065C3526,12070 3554,12078 3589,12083C3646,12091 3655,12090 3682,12070C3702,12055 3715,12051 3722,12058C3728,12064 3715,12087 3681,12124C3600,12214 3607,12219 3775,12199ZM6800,12075C6800,12055 6795,12050 6775,12050C6755,12050 6750,12055 6750,12075C6750,12095 6755,12100 6775,12100C6795,12100 6800,12095 6800,12075ZM5821,11939C5874,11887 5920,11805 5920,11762C5920,11734 5917,11736 5834,11814C5743,11900 5726,11923 5714,11984L5707,12023L5741,12004C5759,11993 5795,11964 5821,11939ZM3574,11760C3648,11743 3721,11720 3745,11706C3786,11681 3788,11679 3788,11631C3788,11595 3795,11568 3814,11536C3849,11476 3848,11459 3811,11470C3765,11483 3740,11499 3673,11562C3629,11603 3605,11619 3598,11612C3582,11596 3597,11565 3657,11498C3708,11442 3712,11435 3693,11432C3663,11428 3624,11450 3555,11512C3480,11580 3441,11607 3408,11615C3371,11624 3363,11603 3394,11579C3408,11568 3420,11551 3420,11542C3420,11527 3407,11525 3318,11526C3240,11526 3207,11531 3182,11544C3104,11584 3139,11525 3224,11471C3296,11426 3311,11410 3282,11410C3220,11410 2886,11551 2892,11574C2894,11580 2906,11618 2919,11657L2942,11730L3003,11724C3153,11712 3169,11708 3214,11679C3240,11663 3265,11650 3270,11650C3288,11650 3286,11676 3267,11711C3255,11731 3249,11754 3253,11764C3259,11779 3265,11778 3312,11754C3341,11740 3372,11721 3382,11713C3408,11690 3416,11717 3391,11744C3367,11769 3365,11781 3381,11797C3389,11805 3400,11806 3419,11799C3433,11793 3503,11776 3574,11760ZM2688,11640C2786,11631 2818,11618 2847,11574C2868,11541 2854,11530 2784,11530C2718,11530 2648,11551 2581,11592C2483,11651 2501,11659 2688,11640ZM2639,11499C2671,11488 2672,11486 2655,11473C2635,11459 2380,11453 2380,11468C2380,11480 2394,11496 2415,11509C2440,11524 2590,11517 2639,11499ZM2443,11333C2455,11321 2428,11300 2400,11300C2384,11300 2343,11313 2308,11330C2272,11347 2229,11360 2206,11360C2173,11360 2169,11362 2180,11375C2190,11387 2216,11390 2294,11390C2349,11390 2402,11395 2410,11400C2422,11407 2426,11402 2431,11375C2434,11355 2440,11337 2443,11333ZM2000,11265C2000,11262 1993,11248 1983,11234C1960,11199 1905,11173 1824,11160C1664,11134 1632,11121 1587,11068C1529,11000 1491,10978 1439,10982L1397,10985L1448,11036C1508,11094 1627,11167 1715,11200C1830,11242 2000,11281 2000,11265ZM2815,11076C3110,10976 3213,10928 3312,10841C3355,10803 3445,10682 3437,10673C3435,10672 3377,10696 3309,10729C3178,10791 3024,10854 2976,10866C2929,10877 2952,10856 3060,10784C3121,10744 3167,10706 3180,10684C3192,10665 3200,10647 3198,10645C3194,10641 3134,10664 2958,10740C2909,10760 2890,10765 2890,10755C2890,10735 2944,10693 2987,10680C3049,10660 3101,10627 3116,10598C3130,10571 3135,10510 3124,10510C3120,10510 3091,10535 3059,10565C2952,10664 2807,10735 2473,10856C2367,10894 2280,10928 2280,10932C2280,10936 2298,10945 2320,10951C2353,10961 2375,10960 2442,10947C2527,10930 2560,10926 2594,10928C2628,10931 2593,10957 2525,10980C2463,11001 2410,11033 2410,11050C2410,11068 2452,11071 2511,11056C2604,11032 2612,11033 2604,11075C2598,11111 2603,11140 2617,11140C2622,11140 2711,11111 2815,11076ZM1465,10899C1495,10888 1520,10876 1520,10872C1520,10868 1479,10834 1428,10797C1339,10730 1212,10659 1158,10646L1131,10640L1151,10675C1177,10719 1223,10758 1278,10782C1301,10792 1320,10805 1320,10810C1320,10824 1290,10850 1274,10850C1262,10850 1261,10854 1271,10873C1278,10885 1290,10900 1299,10907C1324,10926 1403,10922 1465,10899ZM2337,10805C2700,10685 2860,10573 2949,10380C2989,10292 2995,10270 2978,10270C2959,10270 2926,10294 2845,10365C2773,10429 2714,10470 2693,10470C2685,10470 2685,10460 2695,10433C2702,10412 2714,10368 2720,10335C2730,10290 2741,10267 2767,10241C2793,10215 2798,10205 2788,10198C2763,10181 2720,10200 2655,10255C2619,10285 2586,10310 2582,10310C2370,10312 2336,10316 2210,10362C2141,10387 2067,10411 2045,10415L2005,10422L2030,10442C2052,10460 2064,10461 2135,10456C2208,10450 2213,10451 2190,10464C2175,10472 2125,10490 2076,10503C2028,10517 1986,10530 1983,10534C1973,10543 2009,10590 2042,10610C2127,10662 2339,10655 2455,10597L2495,10577L2477,10598C2447,10631 2332,10687 2235,10715C2133,10745 1967,10770 1868,10770C1794,10770 1783,10781 1821,10816C1840,10833 1856,10835 1959,10832C2066,10829 2077,10830 2094,10849C2105,10861 2119,10870 2127,10870C2134,10870 2229,10841 2337,10805ZM4748,10751C4793,10718 4798,10711 4785,10700C4777,10693 4760,10691 4748,10694C4718,10702 4648,10768 4655,10780C4667,10799 4697,10790 4748,10751ZM4082,10633C4101,10617 4143,10574 4177,10535C4210,10497 4246,10457 4256,10448C4278,10428 4342,10400 4364,10400C4387,10400 4364,10455 4334,10475C4291,10503 4270,10529 4270,10555C4270,10586 4274,10586 4336,10550C4385,10522 4450,10444 4450,10414C4450,10407 4435,10400 4418,10398C4376,10394 4368,10362 4401,10331L4424,10310L4389,10310C4332,10310 4260,10351 4195,10422C4136,10485 4022,10660 4039,10660C4043,10660 4063,10648 4082,10633ZM4994,10609C5013,10577 5015,10540 4997,10517C4986,10501 4983,10501 4962,10515C4943,10529 4940,10540 4940,10596C4940,10656 4941,10659 4959,10648C4969,10642 4985,10624 4994,10609ZM8162,10608C8243,10562 8247,10498 8175,10431C8096,10358 7973,10310 7865,10310C7804,10310 7740,10325 7740,10339C7740,10361 8080,10630 8109,10630C8116,10630 8140,10620 8162,10608ZM1425,10569C1505,10557 1516,10546 1482,10512C1470,10500 1441,10491 1406,10486C1334,10478 1327,10474 1215,10389C1165,10352 1108,10314 1087,10305C1052,10291 1049,10291 1043,10307C1030,10339 1035,10434 1050,10464C1099,10558 1236,10597 1425,10569ZM3686,10491C3717,10453 3753,10416 3767,10409C3806,10388 3788,10375 3721,10375L3658,10375L3635,10437C3623,10471 3605,10511 3596,10524C3575,10557 3576,10560 3605,10560C3624,10560 3644,10543 3686,10491ZM6122,10526C6128,10515 6139,10481 6146,10453L6158,10400L6109,10400C6064,10400 6060,10402 6069,10418C6076,10431 6075,10452 6064,10486C6056,10513 6052,10540 6054,10546C6061,10564 6109,10550 6122,10526ZM8320,10385C8320,10363 8393,10287 8435,10264C8454,10254 8470,10243 8470,10240C8470,10228 8400,10201 8343,10191C8311,10186 8228,10179 8158,10175C8010,10168 7943,10151 7896,10109C7863,10081 7861,10080 7855,10099C7842,10142 7912,10203 7999,10226C8039,10236 8048,10243 8070,10285C8084,10312 8107,10342 8122,10353C8176,10393 8320,10416 8320,10385ZM1842,10368C1882,10352 1899,10340 1897,10330C1895,10319 1883,10316 1848,10318C1813,10321 1800,10317 1792,10305C1784,10290 1781,10291 1762,10315C1735,10349 1734,10366 1758,10379C1780,10393 1776,10393 1842,10368ZM5271,10311C5295,10286 5300,10273 5300,10233C5300,10207 5296,10179 5291,10171C5279,10152 5255,10190 5224,10275C5200,10340 5200,10340 5221,10340C5232,10340 5255,10327 5271,10311ZM5630,10314C5630,10292 5626,10289 5603,10292C5585,10294 5576,10302 5574,10318C5571,10337 5575,10340 5600,10340C5626,10340 5630,10336 5630,10314ZM1466,10145C1497,10132 1500,10128 1490,10111C1485,10100 1472,10086 1462,10081C1449,10073 1461,10071 1508,10070C1568,10070 1630,10050 1630,10031C1630,10026 1604,10017 1572,10011C1478,9993 1418,9957 1337,9869L1264,9790L1243,9817L1223,9844L1166,9825C1109,9805 1108,9805 1094,9825C1078,9847 1076,9903 1090,9930C1108,9964 1082,9962 1029,9926C988,9897 974,9892 959,9900C936,9913 936,9915 958,9952C975,9982 1098,10080 1118,10080C1124,10080 1142,10072 1159,10063C1187,10047 1192,10047 1200,10060C1216,10085 1235,10058 1220,10030C1204,10000 1210,9997 1259,10015C1323,10037 1360,10068 1382,10117C1403,10164 1413,10167 1466,10145ZM8476,10106C8544,10075 8558,10045 8536,9985C8514,9930 8516,9894 8540,9877C8559,9864 8559,9862 8543,9848C8510,9821 8471,9811 8364,9800C8305,9794 8242,9783 8223,9775C8178,9756 8182,9778 8228,9800C8263,9817 8268,9831 8245,9850C8232,9861 8216,9861 8160,9850C8121,9843 8087,9840 8084,9843C8074,9853 8198,9972 8263,10015C8308,10045 8318,10056 8309,10066C8292,10086 8257,10083 8232,10060L8210,10039L8210,10063C8210,10089 8232,10113 8270,10129C8309,10146 8415,10134 8476,10106ZM1610,9965C1610,9962 1603,9944 1595,9924C1579,9886 1533,9860 1480,9860C1417,9860 1458,9922 1540,9950C1599,9971 1610,9973 1610,9965ZM1940,9870C1953,9862 1952,9857 1934,9833C1916,9809 1905,9805 1866,9806L1820,9806L1845,9763C1862,9732 1865,9718 1857,9715C1850,9712 1833,9706 1818,9701C1792,9691 1789,9693 1771,9728C1741,9788 1724,9798 1689,9778C1648,9754 1653,9774 1696,9807C1763,9858 1902,9894 1940,9870ZM8560,9761C8560,9751 8578,9715 8601,9682C8637,9627 8641,9615 8638,9569L8635,9517L8590,9503C8552,9492 8313,9440 8297,9440C8295,9440 8293,9448 8294,9457C8294,9466 8284,9479 8272,9486C8259,9492 8244,9502 8239,9507C8224,9522 8239,9548 8265,9554C8278,9557 8308,9580 8333,9604C8391,9663 8447,9700 8476,9700C8489,9700 8500,9705 8500,9710C8500,9729 8471,9732 8448,9716C8436,9707 8413,9700 8397,9700C8369,9700 8368,9701 8382,9723C8404,9756 8459,9780 8513,9780C8552,9780 8560,9777 8560,9761ZM2173,9756C2204,9756 2230,9753 2230,9749C2230,9745 2206,9734 2178,9725C2111,9703 2100,9693 2134,9684C2163,9677 2169,9660 2142,9660C2133,9660 2094,9666 2057,9674C2019,9682 1982,9686 1974,9683C1950,9674 1958,9697 1987,9719C2001,9731 2011,9742 2009,9744C2007,9746 1996,9752 1985,9759C1969,9769 1980,9770 2040,9763C2081,9759 2141,9755 2173,9756ZM968,9700C946,9670 946,9669 964,9622C992,9548 992,9546 957,9525C931,9509 883,9440 867,9397C866,9392 845,9394 822,9402C773,9417 769,9434 798,9499C813,9531 819,9537 829,9527C839,9518 844,9519 854,9534C882,9580 903,9600 923,9600C942,9600 940,9604 910,9622C891,9634 873,9645 871,9646C869,9648 882,9667 900,9690C924,9720 939,9730 961,9730L991,9730L968,9700ZM1630,9721C1630,9702 1600,9682 1563,9675C1510,9665 1500,9654 1500,9601C1500,9542 1465,9482 1365,9370C1291,9286 1240,9204 1240,9167C1240,9153 1236,9150 1223,9155C1213,9160 1187,9166 1165,9169C1126,9175 1126,9176 1148,9188C1180,9206 1247,9300 1338,9453C1425,9600 1490,9678 1553,9709C1597,9731 1630,9736 1630,9721ZM1727,9682C1737,9676 1736,9669 1724,9651C1704,9623 1652,9600 1610,9600C1581,9600 1580,9602 1591,9623C1615,9669 1642,9690 1679,9690C1699,9690 1721,9686 1727,9682ZM758,9588C789,9557 757,9470 715,9470C703,9470 700,9484 700,9535C700,9596 701,9600 723,9600C736,9600 751,9595 758,9588ZM1489,9336C1530,9286 1502,9189 1400,9036C1363,8981 1330,8929 1326,8922C1322,8915 1328,8889 1340,8864C1393,8756 1319,8610 1213,8610C1182,8610 1181,8611 1190,8636C1196,8651 1230,8758 1266,8874C1335,9097 1380,9211 1432,9298C1467,9354 1471,9357 1489,9336ZM783,9282C820,9250 796,9170 749,9170C732,9170 730,9178 730,9240C730,9314 738,9320 783,9282ZM8818,9167C8862,9087 8883,9002 8878,8926L8875,8877L8810,8858C8744,8840 8645,8834 8623,8848C8611,8855 8607,8873 8609,8903C8609,8912 8626,8928 8645,8937C8682,8955 8699,8985 8681,9003C8673,9011 8660,9009 8635,8997C8591,8976 8560,8975 8560,8995C8560,9014 8596,9036 8642,9044C8663,9048 8682,9055 8685,9060C8699,9082 8634,9081 8538,9056C8432,9029 8384,9024 8362,9038C8327,9061 8385,9102 8475,9120C8508,9126 8550,9136 8568,9141C8602,9152 8625,9182 8616,9205C8613,9213 8621,9220 8638,9223C8653,9226 8683,9235 8705,9243C8730,9253 8751,9255 8761,9249C8771,9244 8796,9208 8818,9167ZM940,9066C940,9064 933,9049 925,9034C917,9018 910,8993 910,8978C910,8945 879,8910 850,8910C832,8910 830,8917 830,8983C830,9024 833,9060 837,9063C844,9070 940,9073 940,9066ZM981,8809C998,8792 1001,8779 997,8743C988,8659 922,8608 899,8667C891,8690 893,8706 915,8762C930,8800 946,8830 951,8830C956,8830 970,8820 981,8809ZM8867,8813C8836,8718 8835,8712 8856,8621L8876,8531L8854,8519C8826,8504 8779,8511 8712,8540L8662,8562L8677,8613C8694,8671 8713,8698 8750,8712C8769,8719 8771,8723 8760,8730C8751,8735 8733,8733 8711,8723C8670,8705 8627,8701 8620,8714C8612,8729 8723,8799 8781,8814C8856,8834 8874,8834 8867,8813ZM1524,8606C1510,8558 1477,8490 1468,8490C1448,8490 1450,8523 1474,8576C1488,8607 1500,8640 1500,8649C1501,8662 1503,8662 1515,8646C1524,8634 1527,8617 1524,8606ZM8820,8456C8820,8429 8787,8400 8758,8400C8735,8400 8690,8421 8690,8432C8690,8456 8732,8480 8775,8480C8816,8480 8820,8478 8820,8456ZM8804,8087C8820,8076 8819,8073 8790,8052L8760,8029L8751,8052C8744,8069 8746,8078 8758,8088C8778,8103 8782,8103 8804,8087ZM8770,7928C8770,7893 8741,7870 8698,7870C8652,7870 8648,7889 8685,7925C8717,7958 8770,7960 8770,7928ZM8738,7797C8741,7763 8739,7760 8716,7760C8681,7760 8666,7790 8686,7819C8710,7852 8734,7842 8738,7797ZM1250,7747C1250,7712 1227,7679 1193,7661C1165,7647 1160,7647 1160,7663C1160,7683 1233,7789 1242,7784C1247,7781 1250,7764 1250,7747ZM8610,7765C8610,7737 8589,7729 8523,7733C8483,7735 8480,7737 8480,7763C8480,7790 8481,7790 8545,7790C8608,7790 8610,7789 8610,7765ZM1098,7704C1099,7703 1098,7696 1094,7687C1087,7668 1026,7646 1005,7654C990,7659 984,7720 996,7733C1000,7737 1069,7718 1098,7704ZM8624,7515C8660,7500 8671,7477 8647,7467C8640,7465 8618,7469 8597,7477C8560,7492 8549,7514 8573,7523C8579,7526 8586,7529 8586,7529C8587,7530 8604,7523 8624,7515ZM1241,7439C1255,7390 1250,7300 1231,7250C1209,7193 1140,7080 1126,7080C1121,7080 1120,7100 1123,7125C1126,7157 1143,7195 1179,7251C1241,7348 1247,7384 1196,7345C1185,7337 1166,7330 1153,7330C1106,7330 1131,7433 1185,7456C1223,7473 1233,7470 1241,7439ZM8552,7363C8575,7352 8610,7305 8610,7286C8610,7283 8580,7290 8543,7300C8475,7319 8450,7338 8450,7372C8450,7388 8455,7390 8488,7384C8508,7380 8537,7371 8552,7363ZM8400,7072C8432,7056 8462,7008 8448,6995C8430,6976 8320,7050 8320,7081C8320,7095 8362,7090 8400,7072ZM1300,7048C1300,7035 1282,6999 1260,6966C1212,6895 1209,6906 1251,7000C1283,7071 1300,7088 1300,7048Z" style="fill:white;fill-rule:nonzero;"/>
        <path d="M6855,7189C6828,7167 6776,7132 6740,7111C6676,7073 6457,6970 6439,6970C6434,6970 6430,6979 6430,6990C6430,7016 6414,7015 6333,6985C6168,6923 6070,6818 6070,6705C6070,6646 6081,6642 6162,6675C6174,6680 6183,6673 6194,6651L6210,6621L6257,6648C6284,6662 6310,6681 6316,6689C6326,6702 6333,6702 6370,6685L6412,6666L6454,6689C6719,6840 6978,6914 7310,6934L7406,6940L7425,6885C7441,6835 7446,6829 7469,6832C7485,6834 7504,6850 7524,6879C7541,6903 7565,6926 7578,6931C7597,6938 7600,6936 7600,6916C7600,6903 7587,6882 7570,6867C7537,6837 7528,6803 7558,6815C7567,6819 7587,6825 7601,6827C7624,6831 7629,6826 7649,6780C7678,6712 7686,6710 7772,6745C7786,6751 7789,6744 7792,6704C7796,6637 7814,6629 7881,6664C7911,6680 7937,6694 7939,6696C7940,6697 7922,6736 7899,6781C7821,6926 7760,6977 7670,6968C7633,6965 7632,6965 7626,7003C7621,7032 7611,7046 7580,7068C7558,7083 7535,7107 7528,7123L7515,7150L7362,7150C7193,7150 7133,7160 7095,7196L7069,7220L7050,7198L7032,7175L6976,7203C6945,7218 6916,7230 6912,7229C6908,7229 6883,7211 6855,7189Z" style="fill:white;fill-rule:nonzero;"/>
        <path d="M3278,7056C3263,7048 3225,7021 3195,6996C3121,6936 3107,6933 3069,6964C3052,6978 3029,6990 3018,6990C2995,6990 2933,6960 2830,6900C2707,6828 2657,6818 2548,6844L2491,6857L2448,6813C2424,6788 2349,6720 2282,6662C2148,6548 2073,6466 2035,6390C2000,6320 2001,6316 2060,6323C2131,6332 2194,6369 2302,6467C2422,6575 2493,6612 2587,6612C2625,6613 2672,6608 2691,6601C2724,6590 2734,6593 2831,6639C3023,6730 3074,6737 3212,6694C3313,6662 3351,6665 3529,6715C3675,6756 3698,6757 3807,6729L3889,6707L3869,6681C3858,6667 3852,6654 3857,6653C3874,6647 4061,6709 4105,6735C4143,6757 4190,6810 4190,6830C4190,6840 4122,6881 4091,6890C4073,6895 4006,6906 3943,6915C3812,6933 3752,6957 3711,7007C3683,7041 3682,7042 3656,7025C3617,6999 3546,7004 3458,7039C3375,7073 3320,7078 3278,7056Z" style="fill:white;fill-rule:nonzero;"/>
        <path d="M6820,6591C6694,6563 6544,6501 6524,6468C6513,6450 6627,6468 6801,6511C7117,6588 7212,6586 7346,6499C7387,6472 7437,6442 7457,6432C7503,6409 7570,6395 7570,6409C7570,6427 7483,6505 7431,6533C7331,6588 7261,6602 7075,6606C6936,6609 6890,6606 6820,6591Z" style="fill:white;fill-rule:nonzero;"/>
        <path d="M6050,6552C6050,6544 6022,6516 5857,6360C5760,6268 5732,6214 5724,6104C5716,6010 5736,5927 5774,5891L5798,5868L5819,5889C5843,5913 5845,5932 5828,6010L5817,6066L5891,6188C5932,6256 6002,6361 6048,6422C6124,6524 6129,6534 6113,6546C6093,6561 6050,6565 6050,6552Z" style="fill:white;fill-rule:nonzero;"/>
        <path d="M3401,6509C3252,6491 3133,6449 2865,6320C2772,6275 2685,6234 2673,6229C2660,6224 2650,6212 2650,6201C2650,6161 2627,6132 2564,6096C2503,6061 2478,6028 2494,6002C2509,5978 2618,5956 2725,5956L2835,5955L2838,5982C2840,6002 2834,6012 2811,6026C2792,6037 2780,6053 2780,6065C2780,6082 2787,6085 2823,6086C2851,6087 2890,6100 2937,6124C2982,6147 3024,6162 3052,6163L3095,6165L3101,6100C3105,6064 3110,6028 3114,6020C3119,6007 3109,6005 3045,6008C3001,6010 2970,6008 2970,6002C2970,5983 3040,5931 3077,5923C3128,5912 3297,5915 3395,5929C3439,5935 3553,5961 3648,5987C3783,6023 3820,6037 3820,6050C3820,6077 3811,6079 3773,6064C3715,6039 3710,6047 3710,6153C3710,6268 3718,6280 3782,6260C3813,6251 3851,6222 3925,6150C3999,6078 4036,6049 4065,6041C4110,6029 4160,6026 4160,6037C4160,6040 4146,6065 4129,6092C4055,6208 3910,6296 3705,6351C3639,6369 3596,6373 3460,6374C3262,6375 3205,6362 3080,6290C2984,6235 2952,6225 2913,6235C2886,6241 2885,6242 2905,6257C2945,6287 3057,6338 3135,6363C3266,6404 3391,6421 3598,6427C3789,6433 3790,6433 3773,6452C3733,6496 3680,6513 3575,6516C3520,6517 3442,6514 3401,6509ZM3280,6214C3280,6184 3285,6150 3290,6139C3309,6104 3358,6087 3425,6093C3518,6100 3542,6115 3562,6179C3583,6242 3605,6270 3635,6270C3654,6270 3658,6260 3672,6188C3691,6086 3681,6035 3640,6035C3619,6035 3614,6040 3612,6068C3610,6085 3606,6100 3603,6100C3599,6100 3569,6073 3534,6040C3500,6007 3463,5980 3453,5980C3442,5980 3423,5991 3410,6005C3381,6035 3361,6036 3291,6010C3231,5987 3196,5990 3155,6021C3134,6038 3130,6050 3130,6095C3130,6198 3181,6267 3258,6269C3278,6270 3280,6266 3280,6214Z" style="fill:white;fill-rule:nonzero;"/>
        <path d="M4275,6439C4288,6395 4339,6311 4416,6208C4457,6153 4499,6091 4509,6071C4539,6013 4560,5931 4560,5873C4560,5824 4562,5820 4583,5820C4596,5820 4615,5829 4625,5840C4641,5858 4643,5876 4641,5973C4639,6079 4638,6086 4612,6113C4597,6128 4547,6198 4499,6268C4410,6400 4364,6444 4301,6456C4269,6463 4268,6462 4275,6439Z" style="fill:white;fill-rule:nonzero;"/>
        <path d="M6824,6449C6535,6421 6290,6301 6191,6139L6160,6090L6188,6090C6231,6091 6289,6122 6369,6189C6452,6259 6497,6284 6554,6294C6588,6301 6592,6299 6586,6284C6583,6275 6589,6234 6600,6193C6628,6096 6626,6089 6568,6084C6519,6081 6460,6057 6460,6041C6460,6027 6604,6007 6795,5994C7005,5981 7231,6033 7330,6120L7355,6141L7304,6136C7277,6134 7249,6134 7243,6138C7231,6146 7217,6281 7226,6304C7248,6361 7391,6272 7462,6158L7491,6111L7533,6130C7594,6158 7648,6155 7748,6116C7857,6074 7889,6067 7934,6076C7978,6084 7982,6109 7944,6139C7922,6156 7903,6160 7843,6160L7768,6160L7711,6218C7585,6344 7387,6422 7118,6450C7013,6461 6941,6461 6824,6449ZM6802,6251C6806,6177 6826,6140 6862,6140C6886,6140 6885,6128 6859,6104C6831,6079 6755,6080 6710,6106C6670,6129 6658,6165 6669,6227C6681,6287 6713,6320 6761,6320L6798,6320L6802,6251ZM7190,6150C7151,6077 7010,6070 7010,6141C7010,6163 7008,6163 7049,6149C7079,6138 7084,6140 7113,6168C7131,6185 7156,6203 7170,6208C7192,6216 7195,6215 7198,6194C7200,6181 7196,6162 7190,6150Z" style="fill:white;fill-rule:nonzero;"/>
        <path d="M3850,6420C3850,6403 3914,6351 3923,6360C3932,6368 3914,6410 3896,6422C3880,6433 3850,6432 3850,6420Z" style="fill:white;fill-rule:nonzero;"/>
        <path d="M8878,6367C8860,6344 8810,6285 8765,6235C8669,6128 8641,6090 8610,6030C8577,5966 8560,5895 8560,5821L8560,5758L8595,5764C8614,5768 8648,5782 8672,5795L8714,5819L8738,5777C8771,5718 8800,5690 8827,5690C8846,5690 8850,5694 8846,5708C8818,5799 8812,5996 8835,6080C8849,6133 8876,6180 8897,6187C8902,6189 8920,6153 8935,6108C8958,6040 8964,6001 8968,5898C8973,5763 8966,5698 8920,5455C8877,5228 8876,5216 8890,5225C8917,5241 8982,5358 9004,5430C9065,5623 9061,5885 8990,6225C8958,6378 8952,6397 8930,6403C8915,6407 8902,6397 8878,6367Z" style="fill:white;fill-rule:nonzero;"/>
        <path d="M450,6238C350,6064 316,5729 360,5355C387,5129 405,5045 446,4944C486,4844 505,4813 531,4805C563,4795 570,4808 553,4848C447,5100 386,5643 447,5781C467,5826 524,5879 538,5865C552,5851 541,5753 516,5675C502,5631 490,5592 490,5588C490,5576 539,5579 563,5592C575,5598 606,5620 633,5642C701,5695 721,5693 760,5626C777,5596 799,5568 809,5565C829,5559 860,5568 860,5580C860,5596 711,5959 675,6030C615,6150 514,6290 488,6290C484,6290 467,6266 450,6238Z" style="fill:white;fill-rule:nonzero;"/>
        <path d="M7635,5993C7487,5908 7347,5848 7268,5835C7159,5818 7114,5775 7181,5751C7292,5713 7511,5766 7630,5860C7672,5893 7710,5961 7710,6003C7710,6036 7709,6036 7635,5993Z" style="fill:white;fill-rule:nonzero;"/>
        <path d="M5547,5974C5539,5959 5509,5830 5493,5745C5485,5700 5477,5561 5473,5428C5464,5054 5489,4868 5562,4769L5595,4725L5598,4825C5600,4880 5594,5026 5585,5150C5564,5454 5564,5729 5585,5844L5601,5934L5577,5958C5563,5971 5550,5978 5547,5974Z" style="fill:white;fill-rule:nonzero;"/>
        <path d="M3925,5833C3909,5830 3803,5809 3690,5785C3577,5761 3437,5734 3379,5726C3250,5707 3042,5706 2940,5724C2899,5732 2863,5736 2861,5734C2850,5724 2877,5675 2903,5656C2930,5636 2946,5635 3188,5632C3462,5628 3582,5637 3720,5671C3854,5705 3984,5771 4010,5820C4020,5838 4018,5840 3988,5839C3970,5838 3942,5835 3925,5833Z" style="fill:white;fill-rule:nonzero;"/>
        <path d="M6030,5814C6030,5811 6045,5780 6062,5746C6126,5625 6251,5529 6388,5496C6461,5478 6580,5468 6580,5480C6580,5505 6485,5564 6365,5615C6209,5681 6162,5713 6129,5775C6107,5816 6102,5820 6068,5820C6047,5820 6030,5817 6030,5814Z" style="fill:white;fill-rule:nonzero;"/>
        <path d="M8420,5565C8420,5523 8440,5481 8486,5424C8505,5402 8529,5362 8541,5335C8571,5268 8563,5187 8514,5072C8460,4945 8432,4860 8428,4816L8425,4778L8490,4754L8555,4731L8578,4753C8618,4790 8677,4900 8711,5000L8743,5095L8708,5147C8688,5175 8660,5232 8645,5272C8576,5456 8557,5494 8505,5547C8444,5611 8420,5616 8420,5565Z" style="fill:white;fill-rule:nonzero;"/>
        <path d="M799,5442C733,5408 696,5357 674,5270C656,5197 660,5094 685,5000C702,4937 695,4926 632,4914L598,4907L604,4856C612,4795 658,4694 702,4637C739,4591 888,4470 908,4470C919,4470 921,4484 915,4542C906,4630 879,4710 807,4860C742,4995 730,5035 730,5112C730,5187 739,5208 801,5276C856,5337 889,5399 890,5443C890,5479 868,5478 799,5442Z" style="fill:white;fill-rule:nonzero;"/>
        <path d="M5696,4754C5681,4716 5680,4707 5691,4691C5699,4681 5742,4624 5787,4564C5874,4449 6020,4212 6090,4070C6122,4006 6130,3982 6122,3970C6116,3962 6086,3914 6056,3864C5998,3769 5947,3715 5905,3704C5871,3696 5874,3684 5911,3676C6075,3644 6197,3748 6299,4009C6318,4055 6319,4064 6306,4074C6299,4080 6250,4117 6198,4156C6107,4225 6104,4229 6093,4281C6062,4431 5987,4552 5845,4688C5719,4809 5719,4809 5696,4754Z" style="fill:white;fill-rule:nonzero;"/>
        <path d="M8692,4709C8680,4689 8644,4650 8612,4624C8542,4564 8525,4545 8500,4498C8471,4444 8474,4430 8512,4430C8560,4430 8628,4468 8660,4511C8693,4557 8723,4660 8718,4710L8715,4745L8692,4709Z" style="fill:white;fill-rule:nonzero;"/>
        <path d="M4481,4518C4420,4488 4323,4389 4277,4310C4174,4132 4161,3923 4248,3827C4265,3808 4340,3765 4340,3775C4340,3778 4325,3800 4306,3824C4261,3883 4245,3953 4259,4020C4273,4087 4287,4112 4385,4256C4430,4322 4478,4396 4490,4420C4519,4476 4541,4540 4532,4540C4528,4540 4505,4530 4481,4518Z" style="fill:white;fill-rule:nonzero;"/>
        <path d="M649,4443C638,4319 733,4185 854,4152C907,4137 946,4153 970,4201C1002,4262 998,4270 938,4270C871,4270 840,4289 769,4370C723,4423 676,4460 655,4460C652,4460 649,4452 649,4443Z" style="fill:white;fill-rule:nonzero;"/>
        <path d="M3936,4236C3881,4118 3828,4039 3758,3973C3712,3930 3695,3920 3654,3915C3608,3908 3598,3901 3490,3791C3427,3727 3325,3628 3264,3570C3092,3407 3030,3292 3060,3186C3071,3145 3131,3060 3149,3060C3153,3060 3164,3084 3173,3113C3198,3189 3266,3307 3337,3397C3371,3440 3495,3568 3613,3682C3887,3946 3970,4056 4035,4235L4059,4300L4030,4315C4014,4323 3996,4330 3990,4330C3984,4330 3960,4288 3936,4236Z" style="fill:white;fill-rule:nonzero;"/>
        <path d="M4650,3908C4584,3889 4540,3842 4516,3764C4510,3743 4511,3743 4557,3751C4622,3764 4688,3754 4810,3712C4919,3676 5010,3666 5031,3687C5040,3696 5037,3708 5017,3739C4962,3821 4881,3880 4784,3905C4718,3922 4700,3922 4650,3908Z" style="fill:white;fill-rule:nonzero;"/>
        <path d="M5672,3903C5660,3901 5644,3886 5636,3872C5612,3826 5516,3743 5444,3707C5380,3675 5325,3656 5086,3585C5037,3570 5001,3555 5006,3550C5011,3546 5043,3532 5077,3520C5128,3502 5154,3498 5212,3502C5296,3508 5339,3527 5482,3621C5631,3720 5733,3756 5843,3748L5895,3745L5898,3780C5901,3825 5883,3859 5845,3881C5814,3899 5713,3912 5672,3903Z" style="fill:white;fill-rule:nonzero;"/>
        <path d="M4370,3728C4370,3691 4405,3667 4466,3662C4524,3658 4580,3671 4580,3688C4580,3699 4482,3730 4420,3737C4379,3742 4370,3740 4370,3728Z" style="fill:white;fill-rule:nonzero;"/>
        <path d="M7395,3688C7370,3611 7308,3492 7216,3346C7057,3092 7013,2995 6980,2825C6961,2723 6954,2673 6920,2371C6896,2167 6869,2027 6831,1910L6802,1825L6851,1879C6961,2002 7004,2135 7045,2476C7091,2865 7117,2936 7273,3087C7389,3201 7400,3220 7445,3393C7459,3447 7482,3517 7496,3548C7510,3579 7524,3624 7527,3647C7532,3682 7529,3692 7507,3714C7489,3732 7470,3740 7447,3740C7414,3740 7411,3737 7395,3688Z" style="fill:white;fill-rule:nonzero;"/>
        <path d="M2190,3410C2190,3365 2197,3294 2205,3252C2238,3091 2443,2529 2511,2416L2541,2365L2536,2490C2527,2688 2474,2883 2356,3153C2285,3314 2201,3490 2195,3490C2192,3490 2190,3454 2190,3410Z" style="fill:white;fill-rule:nonzero;"/>
        <path d="M4705,3154C4689,3152 4639,3145 4595,3139C4347,3107 4129,3056 3831,2959C3625,2892 3457,2853 3418,2863C3362,2878 3480,2776 3610,2696C3982,2469 4716,2326 5285,2369C5689,2400 5809,2448 6318,2788C6408,2848 6449,2914 6434,2975C6430,2992 6409,3007 6358,3029C6207,3097 6049,3115 5755,3100C5465,3084 5445,3075 5680,3066C5982,3055 6111,3030 6181,2969L6215,2941L6185,2940C6169,2940 6090,2935 6010,2929C5930,2923 5570,2917 5210,2916C4567,2913 4552,2913 4370,2887C4163,2858 3898,2825 3800,2815L3735,2808L3759,2834C3797,2875 3860,2898 3992,2920C4059,2931 4203,2961 4310,2985C4483,3024 4667,3060 4770,3073C4789,3076 4866,3067 4940,3054C5087,3028 5267,3013 5321,3024C5340,3027 5372,3040 5392,3053L5429,3075L5277,3075C5131,3076 5120,3078 4995,3114C4872,3150 4772,3163 4705,3154ZM5990,2854C6028,2839 6030,2836 6030,2796C6029,2712 5973,2634 5885,2595C5810,2562 5761,2552 5528,2525C5411,2511 5227,2488 5120,2474C4874,2442 4696,2433 4607,2449C4570,2455 4471,2480 4387,2505C4304,2529 4183,2556 4120,2564C3980,2584 3943,2593 3899,2623C3858,2650 3838,2696 3860,2711C3893,2732 4061,2779 4155,2793C4327,2820 4467,2823 4908,2810C5383,2796 5518,2802 5695,2844C5815,2873 5932,2877 5990,2854Z" style="fill:white;fill-rule:nonzero;"/>
        <path d="M3955,2402C4152,2211 4490,2043 4770,1996C5003,1958 5343,1957 5505,1995C5590,2014 5633,2039 5730,2125C5771,2162 5850,2223 5905,2260C5960,2298 6016,2340 6029,2354L6053,2380L6027,2380C5988,2380 5879,2337 5765,2276C5593,2185 5468,2149 5248,2129C4844,2092 4340,2211 3967,2433C3924,2459 3885,2480 3882,2480C3878,2480 3911,2445 3955,2402Z" style="fill:white;fill-rule:nonzero;"/>
        <path d="M5153,1640C5019,1625 4905,1587 4871,1547C4861,1534 4873,1531 4967,1525C5083,1517 5355,1524 5528,1541C5633,1550 5719,1579 5727,1606C5735,1630 5294,1657 5153,1640Z" style="fill:white;fill-rule:nonzero;"/>
    </g>
</svg>
